<svg xmlns="http://www.w3.org/2000/svg" version="1.1" xmlns:xlink="http://www.w3.org/1999/xlink" xmlns:svgjs="http://svgjs.dev/svgjs" width="1440" height="560" preserveAspectRatio="none" viewBox="0 0 1440 560">
    <g mask="url(&quot;#SvgjsMask1020&quot;)" fill="none">
        <rect width="1440" height="560" x="0" y="0" fill="rgba(252, 240, 237, 1)"></rect>
        <path d="M -338.38469073506803,293 C -194.38,276.4 93.62,201.8 381.61530926493197,210 C 669.62,218.2 813.62,363.8 1101.615309264932,334 C 1389.62,304.2 1753.94,37.4 1821.615309264932,61 C 1889.29,84.6 1516.32,373.8 1440,452" stroke="rgba(193, 188, 188, 1)" stroke-width="2"></path>
        <path d="M -963.635513940397,448 C -819.64,385.6 -531.64,132.4 -243.63551394039698,136 C 44.36,139.6 188.36,465.6 476.364486059603,466 C 764.36,466.4 1003.64,161.2 1196.364486059603,138 C 1389.09,114.8 1391.27,307.6 1440,350" stroke="rgba(193, 188, 188, 1)" stroke-width="2"></path>
        <path d="M -831.8434451378532,427 C -687.84,383 -399.84,229.8 -111.84344513785322,207 C 176.16,184.2 320.16,306.4 608.1565548621468,313 C 896.16,319.6 1161.79,204 1328.1565548621468,240 C 1494.53,276 1417.63,442.4 1440,493" stroke="rgba(193, 188, 188, 1)" stroke-width="2"></path>
        <path d="M -145.83758765444838,468 C -1.84,405.2 286.16,189.6 574.1624123455516,154 C 862.16,118.4 1006.16,293.4 1294.1624123455517,290 C 1582.16,286.6 1984.99,110.6 2014.1624123455517,137 C 2043.33,163.4 1554.83,365 1440,422" stroke="rgba(193, 188, 188, 1)" stroke-width="2"></path>
        <path d="M -455.7201613670166,81 C -311.72,141.2 -23.72,368.6 264.2798386329834,382 C 552.28,395.4 696.28,158.6 984.2798386329835,148 C 1272.28,137.4 1613.14,307.8 1704.2798386329835,329 C 1795.42,350.2 1492.86,269 1440,254" stroke="rgba(193, 188, 188, 1)" stroke-width="2"></path>
        <path d="M -378.71535769456057,126 C -234.72,177 53.28,369.6 341.28464230543943,381 C 629.28,392.4 773.28,180.6 1061.2846423054393,183 C 1349.28,185.4 1705.54,410 1781.2846423054393,393 C 1857.03,376 1508.26,157 1440,98" stroke="rgba(193, 188, 188, 1)" stroke-width="2"></path>
        <path d="M -32.31014494581245,496 C 111.69,412.4 399.69,92.4 687.6898550541875,78 C 975.69,63.6 1119.69,415.8 1407.6898550541875,424 C 1695.69,432.2 2121.23,117.4 2127.6898550541873,119 C 2134.15,120.6 1577.54,369.4 1440,432" stroke="rgba(193, 188, 188, 1)" stroke-width="2"></path>
    </g>
    <defs>
        <mask id="SvgjsMask1020">
            <rect width="1440" height="560" fill="#ffffff"></rect>
        </mask>
    </defs>
</svg>