<svg viewBox="0 0 24 24" version="1.1" xml:space="preserve" xmlns="http://www.w3.org/2000/svg" xmlns:xlink="http://www.w3.org/1999/xlink" fill="#000000"><g id="SVGRepo_bgCarrier" stroke-width="0"></g><g id="SVGRepo_tracerCarrier" stroke-linecap="round" stroke-linejoin="round"></g><g id="SVGRepo_iconCarrier"> <style type="text/css"> .st0{opacity:0.2;fill:none;stroke:#000000;stroke-width:5.000000e-02;stroke-miterlimit:10;} </style> <g id="Layer_Grid"></g> <g id="Layer_2"> <path d="M21,8c0-2.2-1.8-4-4-4H7C4.8,4,3,5.8,3,8v3.8c-0.6,0.5-1,1.3-1,2.2v2.7V17v2c0,0.6,0.4,1,1,1s1-0.4,1-1v-1h16v1 c0,0.6,0.4,1,1,1s1-0.4,1-1v-2v-0.3V14c0-0.9-0.4-1.7-1-2.2V8z M5,8c0-1.1,0.9-2,2-2h10c1.1,0,2,0.9,2,2v3h-1v-1c0-1.7-1.3-3-3-3 h-1c-0.8,0-1.5,0.3-2,0.8C11.5,7.3,10.8,7,10,7H9c-1.7,0-3,1.3-3,3v1H5V8z M16,10v1h-3v-1c0-0.6,0.4-1,1-1h1C15.6,9,16,9.4,16,10z M11,10v1H8v-1c0-0.6,0.4-1,1-1h1C10.6,9,11,9.4,11,10z M20,16H4v-2c0-0.6,0.4-1,1-1h3h3h2h3h3c0.6,0,1,0.4,1,1V16z"></path> </g> </g></svg>